<svg version="1" xmlns="http://www.w3.org/2000/svg" width="989.333" height="989.333" viewBox="0 0 742.000000 742.000000"><path d="M367 219.1c-15.1 1.2-19.4 1.7-30.2 3.9-19.1 3.9-38.7 11.4-54.1 20.6-6.1 3.7-21.9 15.1-26.7 19.3-5.5 4.8-21 20.5-21 21.3 0 .4 52.3.8 116.3.7 109.8 0 154.8.4 162.6 1.7 5.1.8 11.6 4.4 21.1 11.6 4.7 3.4 10.2 7.5 12.3 8.9l3.8 2.6-13.3 9c-7.3 5-17.1 10.9-21.7 13.2l-8.4 4.3-193.6.2c-106.5.1-195.4.5-197.6.9-20.8 4-26.3 5.3-35.3 8.2-17.8 6-34.7 15.1-50.7 27.4-5.5 4.3-24.8 22.8-29 27.9l-1.9 2.3 232.4-.3c127.9-.2 246.2-.5 263-.8 27.3-.5 31.4-.8 38.7-2.8 16.8-4.5 40.9-17.2 52.9-27.8 1.2-1.1 3.6-3.3 5.5-4.9 12.9-11.4 22.6-27.6 27.7-46 2.7-9.5 2.3-34.3-.7-46-8.3-32.2-25.9-47.6-62-54.2-7.3-1.4-21.3-1.6-94.6-1.8-47.3-.1-90.3.2-95.5.6zM209.5 458.9c-.9 1.6-5.5 14.1-5.5 15.1 0 .5 1.9 1.8 4.3 2.9 2.3 1.1 11.4 5.4 20.2 9.6 8.8 4.3 19.6 9.4 24 11.5 4.4 2 12.7 6 18.5 8.8 5.8 2.7 16.7 8 24.4 11.6l13.8 6.6h311.2l15.6-5.1c39.2-12.8 52-17.4 60.9-21.9 11.9-6 22.1-13.1 30-21 6.3-6.3 14.1-16.2 14.1-18 0-1.3-530.6-1.4-531.5-.1z"/></svg>